<?xml version="1.0" encoding="UTF-8"?>
<svg xmlns="http://www.w3.org/2000/svg" xmlns:xlink="http://www.w3.org/1999/xlink" version="1.1" viewBox="0 0 256 256">
  <defs>
    <style>
      .cls-1 {
        fill: url(#linear-gradient);
      }

      .cls-2 {
        fill: #fff;
      }

      .cls-3 {
        fill: none;
        stroke: #fff;
        stroke-linecap: round;
        stroke-miterlimit: 10;
      }
    </style>
    <linearGradient id="linear-gradient" x1="128" y1="28.9" x2="128" y2="228.1" gradientUnits="userSpaceOnUse">
      <stop offset="0" stop-color="#000"/>
      <stop offset=".3" stop-color="#050505"/>
      <stop offset=".6" stop-color="#141414"/>
      <stop offset=".9" stop-color="#2e2e2e"/>
      <stop offset="1" stop-color="#333"/>
    </linearGradient>
  </defs>
  <!-- Generator: Adobe Illustrator 28.7.1, SVG Export Plug-In . SVG Version: 1.2.0 Build 142)  -->
  <g>
    <g id="Layer_1">
      <g>
        <path class="cls-1" d="M72.9,24.8h110.3c26.5,0,48,21.5,48,48v110.3c0,26.5-21.5,48-48,48h-110.3c-26.5,0-48-21.5-48-48v-110.3c0-26.5,21.5-48,48-48Z"/>
        <path d="M183.1,25.6c26,0,47.3,21.3,47.3,47.3v110.3c0,26-21.3,47.3-47.3,47.3h-110.3c-26,0-47.3-21.3-47.3-47.3v-110.3c0-26,21.3-47.3,47.3-47.3h110.3M183.1,24.1h-110.3c-26.9,0-48.8,21.9-48.8,48.8v110.3c0,26.9,21.9,48.8,48.8,48.8h110.3c26.9,0,48.8-21.9,48.8-48.8v-110.3c0-26.9-21.9-48.8-48.8-48.8h0Z"/>
      </g>
      <g>
        <path class="cls-2" d="M144,219.9c-1,0-1.9-.1-2.5-.3-18.5-4.4-44-13.9-60.5-22.6h-.1c0,0-.1-.2-.1-.2-.3-.2-1.5-.6-2.2-.6s0,0-.1,0h-.2s-1.2,0-1.2,0c-1.4,0-3.5.1-5.9.3,0,0-.2,0-.3,0-1.5,0-2.9-.8-3.5-1.9-.4-.9-.3-2,.4-2.9,3.2-4.8,9.4-11.4,14.1-15.2,1.8-1.3,3.8-2,6.1-2s3.8.4,5.7,1.3c14.3,7.6,34.4,15.9,50.2,20.6h.1c.2.1.6.3,1.1.3s.5,0,.7-.1c.2,0,.3-.2.5-.3l7.7-7.8h0c.3-.3.9-1.6.8-2h0v-97.6h0c0-.4-.5-1.6-1-1.9l-14.7-10.2c-1-.5-2.1-.9-3.2-1-.4,0-.8,0-1.2,0-.7,0-1.5,0-2.2.3-4.6.9-9.3,1.5-14,1.9-5,.5-9.2.8-13.4.8-8.2,0-19.9-1.2-26.4-11.2-.5-.7-.9-2-.8-2.9v-31.9c0-2,.9-3.5,2.2-3.7h0s.1,0,.1,0c.5,0,1,.2,1.4.6l11.6,9c.8.5,1.6,2.1,1.5,3.1v6.2c0,3.8,2.9,9.4,9.7,9.9,2.3.1,4.5.2,6.5.2,5.5,0,10-.4,17.4-1.2,2.2-.2,4.7-.5,7.4-.7,1.3,0,2.6-.2,4.1-.4,2.1-.2,4.4-.5,6.8-.5s4.5.2,6.4.8c1.7.4,3.3,1,4.9,1.8,4.1,2.2,8.1,4.6,11.9,7.1,4.9,3.4,9.6,7.1,13.9,11.1.6.6,1.2,1.2,1.6,1.8,2.9,3.9,2.9,8,2.9,9.7v.2c-.1.9,0,5.8,0,12.6.2,15.1.5,43.1-.5,71.5h.4c0,0-.5,1.5-.5,1.5-.4,1.2-1,2.4-1.7,3.5-10,13.8-24.8,30.3-37.7,42.1h0c0,0,0,.1,0,.1-1.5.9-3.5,1-4.5,1ZM77.3,175.2c-3.1,0-5-1.5-5.2-4v-78.7c0-1,.4-3.4,2.3-4.2l16.2-8.9h.4c2.9,1,5.9,1.5,9.4,1.7h1.1c0,0-.1,1.1-.1,1.1v82.4c0,1.6-.5,2.8-1.4,3.8-.9,1.1-2.1,1.4-3.9,1.9-.5.1-1,.3-1.7.5-1.3.4-2.7.8-4,1.3h-.2c0,0-.3,0-.3,0-.6,0-1.2-.1-1.8-.1-3.2,0-6.6,1.1-8.6,2.9l-.2.2h-.3c-.6.1-1.2.2-1.7.2h0Z"/>
        <path d="M80.6,29.9c.2,0,.4,0,.8.3,3.9,3,7.7,6,11.6,9,.5.3,1.2,1.6,1.1,2.2,0,0,0,6.2,0,6.2,0,4.3,3.3,10.4,10.7,10.8,2.4.1,4.5.2,6.5.2,7.2,0,12.9-.8,24.9-1.9,3-.1,6.8-.8,10.8-.8s4.1.2,6.2.7c1.9.5,3.5,1.1,4.7,1.7,3.7,1.9,7.7,4.3,11.8,7.1,5.5,3.7,10.1,7.5,13.8,11,.5.5,1,1.1,1.5,1.7,2.8,3.7,2.7,7.5,2.7,9.2-.4,3.2,1,43.6-.5,85.4h0c-.4,1.4-1,2.5-1.6,3.3-10.4,14.4-25.1,30.6-37.6,41.9-1.1.6-2.7.8-4,.8s-1.7,0-2.2-.3c-18-4.3-43.5-13.7-60.3-22.6-.5-.5-2.1-.9-2.9-.9-.1,0-.2,0-.3,0-1.4,0-3.9.2-7.1.3,0,0-.2,0-.2,0-2.1,0-3.5-1.7-2.3-3.2,3.2-4.8,9.2-11.2,14-15,1.7-1.3,3.6-1.8,5.5-1.8s3.6.5,5.3,1.2c14.2,7.6,34.6,15.9,50.3,20.7.2,0,.8.3,1.5.3s.7,0,1.1-.2c.3-.1.6-.3.8-.5,2.6-2.6,5.1-5.2,7.7-7.8.5-.4,1.4-2.1,1.2-3v-97.4c0-.6-.6-2.3-1.5-2.9-4.9-3.4-9.8-6.8-14.7-10.2-.7-.4-1.9-.9-3.6-1.2-.5,0-.9,0-1.3,0-1,0-1.9.2-2.4.3-5.5,1.1-10.2,1.6-13.8,1.9-4.4.4-8.9.8-13.3.8-10.4,0-20-2.1-25.6-10.7-.4-.5-.7-1.6-.7-2.3v-32c0-1.5.6-2.6,1.3-2.7,0,0,0,0,0,0M90.7,80.4c3.3,1,6.6,1.5,9.6,1.7,0,0,0,0,0,.1v82.4c0,.9-.2,2.1-1.1,3.1-1,1.1-2.1,1.2-5.1,2-1.1.3-2.5.8-4.1,1.3-.6,0-1.3-.1-2-.1-3.3,0-7,1.2-9.3,3.2,0,0,0,0,0,0-.5,0-1.1.1-1.6.1-2.3,0-4-.9-4.2-3,0,0,0-78.7,0-78.7,0-.7.3-2.6,1.7-3.3,5.3-2.9,10.6-5.8,15.9-8.7M80.6,27.9c-.1,0-.2,0-.3,0-1.8.2-3.1,2.1-3.1,4.6v31.9c0,1,.4,2.6,1,3.4,6.8,10.4,18.8,11.6,27.2,11.6s8.4-.3,13.5-.8c4.7-.4,9.4-1,14-1.9h0s0,0,0,0c.6-.1,1.3-.2,1.9-.2.4,0,.7,0,1.1,0,1,.1,1.9.4,2.8.9l7.2,5,7.5,5.2h0s0,0,0,0c.2.1.4.7.5,1h0v97.7h0c0,.4-.3,1-.5,1.3h0s-.1.2-.1.2l-3.8,3.9-3.8,3.8s-.1,0-.2,0c-.1,0-.2,0-.4,0-.3,0-.5,0-.7-.2h-.1s-.1,0-.1,0c-15.7-4.7-35.8-13-49.9-20.5h0s0,0,0,0c-2.1-.9-4.2-1.4-6.1-1.4s-4.7.7-6.7,2.2h0s0,0,0,0c-4.9,3.9-10.9,10.4-14.4,15.4-.9,1.2-1.1,2.6-.5,3.9.7,1.5,2.4,2.5,4.4,2.5s.2,0,.4,0c2.5-.1,4.6-.2,6-.3h1.1s.2,0,.2,0h0c.4,0,1.3.2,1.5.4l.2.2h.3c16.6,8.9,42.1,18.4,60.7,22.9.9.3,2.1.3,2.7.3,1.1,0,3.3-.1,5-1.1h.2c0-.1.2-.3.2-.3,12.9-11.8,27.8-28.4,37.8-42.2h0s0,0,0,0c.8-1.2,1.4-2.5,1.8-3.8l.9-3.1h-.8c.9-27.8.6-55.3.4-70.2,0-6.5-.1-11.6,0-12.5h0c0-.1,0-.2,0-.2h0c0-1.9,0-6.2-3.1-10.4-.5-.7-1.1-1.3-1.7-2-4.4-4-9.1-7.8-14.1-11.2-3.8-2.6-7.8-5-12-7.2-1.6-.8-3.3-1.5-5.1-1.9-2-.5-4.2-.8-6.7-.8s-4.9.3-7,.5c-1.4.2-2.8.3-4,.3h0s0,0,0,0c-2.8.3-5.2.5-7.4.7-7.4.7-11.8,1.2-17.3,1.2s-4.1,0-6.4-.2c-6.1-.4-8.8-5.4-8.8-8.8v-3.2s0-2.1,0-2.1c0-.2,0-.5,0-.7.2-1.4-.8-3.4-1.9-4.1l-5.8-4.5-5.8-4.5c-.8-.6-1.5-.8-2-.8h0ZM90.5,78.3l-.7.4-15.9,8.7c-2.4,1.1-2.9,4-2.8,5.3,0,.2,0,.5,0,.7v11.4s0,27.1,0,27.1v39.3h0c0,0,0,.1,0,.1.2,3.6,3.3,4.9,6.2,4.9s1.2,0,1.9-.1h.7c0,0,.4-.5.4-.5,1.8-1.6,5-2.6,7.9-2.6s1.1,0,1.6.1h.5c0,0,.5,0,.5,0,1.3-.5,2.6-.9,3.9-1.3.6-.2,1.2-.3,1.6-.5,2-.5,3.2-.9,4.4-2.2,1-1.1,1.5-2.6,1.6-4.3h0v-82.4l.3-2-2.1-.2c-3.4-.2-6.4-.7-9.2-1.6l-.8-.2h0Z"/>
      </g>
      <path class="cls-3" d="M72.9,32c-22.5,0-40.9,18.3-40.9,40.9v110.3c0,22.5,18.3,40.9,40.9,40.9h110.3c22.5,0,40.9-18.3,40.9-40.9v-110.3c0-22.5-18.3-40.9-40.9-40.9s-62,0-93,0"/>
    </g>
  </g>
</svg>