<?xml version="1.0" encoding="UTF-8"?><svg id="Layer_1" xmlns="http://www.w3.org/2000/svg" viewBox="0 0 256 256"><defs><style>.cls-1{fill:#231f20;}.cls-1,.cls-2{stroke-width:0px;}.cls-2{fill:#fff;}</style></defs><path class="cls-1" d="M215.792,245.212l-175.585,9.52c-3.255.176-5.917-2.029-5.917-4.902V16.331c0-2.872,2.663-5.367,5.917-5.543L215.792,1.268c3.255-.176,5.917,2.029,5.917,4.902v233.5c0,2.872-2.663,5.367-5.917,5.543Z"/><path class="cls-2" d="M193.997,179.102c-.472,1.557-1.167,2.781-1.751,3.639-4.257,5.789-8.959,11.772-14.151,17.875-9.306,10.938-18.71,20.525-27.728,28.859-.406.198-.868.386-1.386.543-2.267.686-4.348.391-5.522.125-11.203-2.815-23.731-6.591-37.074-11.715-11.3-4.339-21.357-8.943-30.154-13.438-.312-.227-.842-.562-1.578-.783-.899-.27-1.659-.235-2.026-.219-1.532.068-4.327.176-7.954.365-1.608.082-2.939-.715-3.227-1.754-.235-.848.3-1.59.442-1.775,2.152-3.057,4.848-6.442,8.211-9.929,2.517-2.611,5.021-4.878,7.386-6.828.543-.422,1.463-1.039,2.761-1.472,2.248-.751,4.237-.486,5.366-.324.91.131,2.321.428,3.896,1.18,8.463,4.41,18.012,8.919,28.636,13.239,9.652,3.925,18.857,7.151,27.417,9.815.251.107,1.562.64,2.868.125.387-.152.677-.359.884-.543,2.852-2.903,5.705-5.805,8.557-8.708.357-.358.922-1.026,1.201-1.989.15-.518.176-.978.161-1.331v-108.504c-.013-.495-.124-1.449-.837-2.381-.264-.345-.553-.613-.813-.814-5.474-3.801-10.948-7.601-16.422-11.402-.741-.409-2.109-1.048-3.98-1.284-1.81-.229-3.286.021-4.123.219-6.126,1.188-11.394,1.796-15.418,2.13-13.947,1.157-27.291,2.263-36.979-4.552-3.199-2.251-5.168-4.78-6.311-6.515-.202-.329-.431-.779-.586-1.336-.129-.465-.172-.879-.179-1.211V22.783c.005-1.71.684-2.877,1.458-2.965.152-.017.495-.014.98.376,4.319,3.355,8.637,6.71,12.956,10.065.246.212.639.603.908,1.19.244.531.286,1.002.287,1.294v6.955c.003.733.133,6.678,5.546,10.065,2.42,1.515,4.924,1.909,6.358,2.026,1.626.085,4.418.202,7.888.188,8.273-.035,13.113-.788,27.178-2.067,2.162-.197,5.591-.501,9.86-.846,2.128-.187,5.384-.229,9.107.72,2.119.54,3.859,1.267,5.199,1.942,4.107,2.159,8.542,4.752,13.123,7.862,6.142,4.17,11.233,8.377,15.382,12.232.581.556,1.158,1.189,1.699,1.907,3.082,4.089,3.028,8.392,3.022,10.199-.019,5.403.172,41.573,0,91.632-.008.932-.123,2.158-.544,3.545ZM73.258,180.435c.053-.044.105-.09.158-.134l.064-.053.066-.051c1.361-1.058,2.904-1.879,4.584-2.44,1.681-.562,3.468-.846,5.31-.846.878,0,1.638.062,2.33.144,3.011-.983,6.023-1.966,9.034-2.95.363-.169.776-.415,1.159-.773,1.384-1.292,1.283-3.022,1.243-3.456v-91.84c.006-.04.011-.086.017-.129-3.341-.221-7.039-.734-10.752-1.855-5.919,3.251-11.839,6.502-17.758,9.752-.142.073-.271.153-.388.235-1.394.982-1.481,2.724-1.47,3.43v87.705c-.031.64.132,1.104.341,1.441.814,1.317,3.089,1.958,6.063,1.819Z"/></svg>