# Blender 5.0.0
# www.blender.org
o arrow
v -0.000000 0.000000 -0.037997
v 0.000000 1.000000 -0.025740
v 0.029707 0.000000 -0.023691
v 0.020124 1.000000 -0.016049
v 0.037044 0.000000 0.008455
v 0.025094 1.000000 0.005728
v 0.016486 0.000000 0.034234
v 0.011168 1.000000 0.023191
v -0.016486 0.000000 0.034234
v -0.011168 1.000000 0.023191
v -0.037044 0.000000 0.008455
v -0.025094 1.000000 0.005728
v -0.029707 0.000000 -0.023691
v -0.020124 1.000000 -0.016049
v 0.093743 1.004439 -0.074758
v -0.000000 1.004439 -0.119902
v 0.116895 1.004439 0.026681
v 0.052023 1.004439 0.108028
v -0.052023 1.004439 0.108028
v -0.116895 1.004439 0.026681
v -0.093743 1.004439 -0.074758
v 0.005660 1.392372 -0.004514
v -0.000000 1.392372 -0.007239
v 0.007058 1.392372 0.001611
v 0.003141 1.392372 0.006522
v -0.003141 1.392372 0.006522
v -0.007058 1.392372 0.001611
v -0.005660 1.392372 -0.004514
v -0.000000 1.147850 -0.064390
v 0.050342 1.147850 -0.040146
v -0.062775 1.147850 0.014328
v -0.050342 1.147850 -0.040146
v 0.027938 1.147850 0.058013
v -0.027938 1.147850 0.058013
v 0.062775 1.147850 0.014328
vn -0.0000 0.0123 -0.9999
vn 0.7818 0.0123 -0.6234
vn 0.9749 0.0123 0.2225
vn 0.4339 0.0123 0.9009
vn -0.4339 0.0123 0.9009
vn -0.9749 0.0123 0.2225
vn 0.0204 -0.9989 0.0424
vn 0.0459 -0.9989 0.0105
vn -0.7818 0.0123 -0.6234
vn 0.7457 0.3006 -0.5947
vn -0.0000 0.3006 -0.9537
vn -0.0000 0.2276 -0.9738
vn 0.7613 0.2276 -0.6071
vn -0.0368 -0.9989 -0.0294
vn -0.0459 -0.9989 0.0105
vn -0.0204 -0.9989 0.0424
vn -0.0000 -0.9989 -0.0471
vn 0.0368 -0.9989 -0.0294
vn -0.0000 1.0000 -0.0000
vn -0.7457 0.3006 -0.5947
vn -0.9298 0.3006 0.2122
vn -0.9493 0.2276 0.2167
vn -0.7613 0.2276 -0.6071
vn -0.4138 0.3006 0.8593
vn 0.4138 0.3006 0.8593
vn 0.4225 0.2276 0.8773
vn -0.4225 0.2276 0.8773
vn 0.9298 0.3006 0.2122
vn 0.9493 0.2276 0.2167
vn 0.4046 0.3610 0.8402
vn 0.9092 0.3610 0.2075
vn -0.9092 0.3610 0.2075
vn -0.4046 0.3610 0.8402
vn -0.0000 0.3610 -0.9326
vn -0.7291 0.3610 -0.5814
vn 0.7291 0.3610 -0.5814
vt 0.065923 0.000465
vt 0.081850 0.998700
vt 0.059557 0.999174
vt 0.033014 0.001165
vt 0.037270 0.999885
vt 0.000115 0.002215
vt 0.230476 0.002215
vt 0.193321 0.999885
vt 0.171034 0.999174
vt 0.197577 0.001165
vt 0.148741 0.998700
vt 0.164668 0.000465
vt 0.126445 0.998463
vt 0.131754 0.000115
vt 0.364420 0.540073
vt 0.354831 0.519942
vt 0.413858 0.446652
vt 0.458524 0.540426
vt 0.104147 0.998463
vt 0.098837 0.000115
vt 0.305268 0.152502
vt 0.359703 0.171796
vt 0.242552 0.397542
vt 0.236795 0.395279
vt 0.315513 0.551126
vt 0.332931 0.565047
vt 0.311844 0.656759
vt 0.230705 0.591910
vt 0.354681 0.560132
vt 0.413158 0.633863
vt 0.315513 0.528828
vt 0.230705 0.488042
vt 0.354681 0.519822
vt 0.332931 0.514907
vt 0.311844 0.423195
vt 0.413158 0.446092
vt 0.467589 0.437286
vt 0.461475 0.435891
vt 0.458754 0.430241
vt 0.461475 0.424591
vt 0.467589 0.423195
vt 0.472492 0.427105
vt 0.472492 0.433376
vt 0.409575 0.202196
vt 0.451740 0.243358
vt 0.252216 0.405470
vt 0.247784 0.401004
vt 0.481683 0.293529
vt 0.500734 0.348009
vt 0.257943 0.416478
vt 0.255681 0.410721
vt 0.249231 0.147101
vt 0.230705 0.394194
vt 0.505993 0.403903
vt 0.259018 0.422580
vt 0.650793 0.325585
vt 0.652049 0.422966
vt 0.574531 0.148501
vt 0.624011 0.232179
vt 0.422602 0.029317
vt 0.506670 0.079963
vt 0.230705 0.000115
vt 0.328681 0.001818
s 1
f 1/1/1 2/2/1 4/3/2 3/4/2
f 3/4/2 4/3/2 6/5/3 5/6/3
f 5/7/3 6/8/3 8/9/4 7/10/4
f 7/10/4 8/9/4 10/11/5 9/12/5
f 9/12/5 10/11/5 12/13/6 11/14/6
f 8/15/7 6/16/8 17/17/8 18/18/7
f 11/14/6 12/13/6 14/19/9 13/20/9
f 13/20/9 14/19/9 2/2/1 1/1/1
f 30/21/10 29/22/11 23/23/12 22/24/13
f 14/25/14 12/26/15 20/27/15 21/28/14
f 10/29/16 8/15/7 18/18/7 19/30/16
f 2/31/17 14/25/14 21/28/14 16/32/17
f 6/33/8 4/34/18 15/35/18 17/36/8
f 12/26/15 10/29/16 19/30/16 20/27/15
f 4/34/18 2/31/17 16/32/17 15/35/18
f 22/37/19 23/38/19 28/39/19 27/40/19 26/41/19 25/42/19 24/43/19
f 32/44/20 31/45/21 27/46/22 28/47/23
f 34/48/24 33/49/25 25/50/26 26/51/27
f 35/52/28 30/21/10 22/24/13 24/53/29
f 29/22/11 32/44/20 28/47/23 23/23/12
f 31/45/21 34/48/24 26/51/27 27/46/22
f 33/49/25 35/54/28 24/55/29 25/50/26
f 18/56/30 17/57/31 35/54/28 33/49/25
f 20/58/32 19/59/33 34/48/24 31/45/21
f 16/60/34 21/61/35 32/44/20 29/22/11
f 17/62/31 15/63/36 30/21/10 35/52/28
f 19/59/33 18/56/30 33/49/25 34/48/24
f 21/61/35 20/58/32 31/45/21 32/44/20
f 15/63/36 16/60/34 29/22/11 30/21/10
