<?xml version="1.0" encoding="UTF-8"?><svg id="Layer_1" xmlns="http://www.w3.org/2000/svg" width=".564cm" height=".564cm" viewBox="0 0 16 16"><defs><style>.cls-1{fill:#fc7f7f;stroke-width:0px;}</style></defs><path class="cls-1" d="M12.608,11.258l-4.608,4.608-4.608-4.608C.848,8.713.848,4.588,3.392,2.043c2.545-2.545,6.67-2.545,9.215,0,2.545,2.545,2.545,6.67,0,9.215ZM8,9.547c1.599,0,2.896-1.297,2.896-2.896s-1.297-2.896-2.896-2.896-2.896,1.297-2.896,2.896,1.297,2.896,2.896,2.896ZM8,8.099c-.8,0-1.448-.648-1.448-1.448s.648-1.448,1.448-1.448,1.448.648,1.448,1.448-.648,1.448-1.448,1.448Z"/></svg>