<?xml version="1.0" encoding="UTF-8"?><svg id="Layer_1" xmlns="http://www.w3.org/2000/svg" width=".564cm" height=".564cm" viewBox="0 0 16 16"><defs><style>.cls-1{fill:#fc7f7f;stroke-width:0px;}</style></defs><path class="cls-1" d="M8.239,14.167h3.488v1.395H3.356v-1.395h3.488v-.732c-2.297-.228-4.267-1.571-5.36-3.479l1.211-.692c.962,1.68,2.772,2.811,4.846,2.811,3.082,0,5.58-2.498,5.58-5.58,0-2.074-1.132-3.884-2.811-4.846l.692-1.211c2.099,1.202,3.514,3.464,3.514,6.057,0,3.617-2.753,6.591-6.278,6.941v.732ZM7.541,11.377c-2.697,0-4.883-2.186-4.883-4.883S4.844,1.612,7.541,1.612s4.883,2.186,4.883,4.883-2.186,4.883-4.883,4.883ZM7.541,9.982c1.926,0,3.488-1.561,3.488-3.488s-1.561-3.488-3.488-3.488-3.488,1.561-3.488,3.488,1.561,3.488,3.488,3.488Z"/></svg>