<?xml version="1.0" encoding="UTF-8"?>
<svg id="Layer_1" data-name="Layer 1" xmlns="http://www.w3.org/2000/svg" viewBox="0 0 16 16">
  <defs>
    <style>
      .cls-1 {
        fill: #e0e0e0;
      }
    </style>
  </defs>
  <path class="cls-1" d="M1.585,9.873c.33-.296.721-.525,1.152-.666.238.298.605.489,1.016.489s.778-.191,1.016-.489c.431.142.822.371,1.152.666-.138.355-.12.768.085,1.124.206.356.554.578.931.636.045.215.068.437.068.665s-.023.451-.068.665c-.377.058-.726.28-.931.636-.205.356-.224.768-.085,1.124-.33.296-.721.525-1.152.666-.238-.298-.605-.489-1.016-.489s-.778.191-1.016.489c-.431-.142-.822-.371-1.152-.666.138-.355.12-.768-.085-1.124-.206-.356-.554-.578-.931-.636-.045-.215-.068-.437-.068-.665s.023-.451.068-.665c.377-.058.726-.28.931-.636.205-.356.224-.768.085-1.124ZM4.241,13.143c.467-.27.627-.866.357-1.333-.27-.467-.866-.627-1.333-.357-.467.269-.627.866-.357,1.333.27.467.866.627,1.333.357Z"/>
  <path class="cls-1" d="M14.075,3.666c-1.256-1.535-3.165-2.514-5.302-2.514-3.782,0-6.848,3.066-6.848,6.848,0,.337.032.665.079.989.186-.098.374-.191.576-.258l.329-.108.217.27c.309.385.948.382,1.253,0l.217-.271.33.108c.493.163.94.42,1.329.768l.259.231-.126.323c-.089.228-.069.48.053.693.122.211.331.354.573.391l.345.053.07.341c.051.252.077.51.077.766s-.026.515-.077.767l-.07.341-.345.053c-.242.037-.451.18-.574.392-.099.171-.111.367-.072.556.749.282,1.558.443,2.406.443,2.138,0,4.046-.979,5.302-2.514l-4.334-4.334,4.334-4.334ZM8.773,5.261c-.567,0-1.027-.46-1.027-1.027s.46-1.027,1.027-1.027,1.027.46,1.027,1.027-.46,1.027-1.027,1.027Z"/>
</svg>