<?xml version="1.0" encoding="UTF-8"?>
<svg id="Layer_1" data-name="Layer 1" xmlns="http://www.w3.org/2000/svg" viewBox="0 0 16 16">
  <defs>
    <style>
      .cls-1 {
        fill: #fc7f7f;
      }
    </style>
  </defs>
  <path class="cls-1" d="M9.595,10.038c.357-.319.78-.567,1.245-.72.258.322.654.528,1.099.528s.841-.206,1.099-.528c.466.153.888.401,1.245.72-.15.384-.13.83.092,1.215.222.385.599.625,1.006.687.048.232.074.473.074.719s-.025.487-.074.719c-.408.062-.784.302-1.006.687-.222.385-.242.831-.092,1.215-.357.319-.78.567-1.245.72-.258-.322-.654-.528-1.099-.528s-.841.206-1.099.528c-.466-.153-.888-.401-1.245-.72.15-.384.13-.83-.092-1.215-.222-.385-.599-.625-1.007-.687-.048-.232-.074-.473-.074-.719s.025-.487.074-.719c.408-.062.784-.302,1.007-.687.222-.385.242-.831.092-1.215ZM12.466,13.572c.505-.291.677-.936.386-1.441-.291-.505-.936-.677-1.441-.386-.505.291-.677.936-.386,1.441.291.505.936.677,1.441.386Z"/>
  <path class="cls-1" d="M8.333,14.446l-.741-.113-.154-.734c-.064-.307-.097-.624-.097-.941s.033-.633.097-.941l.031-.148h-1.009v-3.513l-3.132-1.814.697-1.205,3.131,1.813,3.131-1.813.697,1.205-3.132,1.814v2.888l.481-.073c.046-.007.163-.037.233-.159.069-.118.042-.229.021-.284l-.27-.697.556-.498c.476-.426,1.024-.743,1.629-.943l.714-.234.469.586c.029.036.113.122.254.122s.226-.086.254-.122l.469-.586.714.234c.137.045.261.118.392.175V3.828L7.156,0,.545,3.828v7.655l6.611,3.828,1.339-.775c-.062-.054-.129-.084-.162-.09Z"/>
</svg>