<?xml version="1.0" encoding="UTF-8"?>
<svg id="Layer_1" data-name="Layer 1" xmlns="http://www.w3.org/2000/svg" viewBox="0 0 16 16">
  <defs>
    <style>
      .cls-1 {
        fill: #e0e0e0;
      }
    </style>
  </defs>
  <path class="cls-1" d="M10.256,10.204c.33-.296.721-.525,1.152-.666.238.298.605.489,1.016.489s.778-.191,1.016-.489c.431.142.822.371,1.152.666-.138.355-.12.768.085,1.124.206.356.554.578.931.636.045.215.068.437.068.665s-.023.451-.068.665c-.377.058-.726.28-.931.636-.205.356-.224.768-.085,1.124-.33.296-.721.525-1.152.666-.238-.298-.605-.489-1.016-.489s-.778.191-1.016.489c-.431-.142-.822-.371-1.152-.666.138-.355.12-.768-.085-1.124-.206-.356-.554-.578-.931-.636-.045-.215-.068-.437-.068-.665s.023-.451.068-.665c.377-.058.726-.28.931-.636.205-.356.224-.768.085-1.124ZM12.913,13.474c.467-.27.627-.866.357-1.333-.27-.467-.866-.627-1.333-.357-.467.269-.627.866-.357,1.333.27.467.866.627,1.333.357Z"/>
  <g>
    <path class="cls-1" d="M8,5.154c-.814,0-1.473.659-1.473,1.473s.66,1.473,1.473,1.473,1.473-.659,1.473-1.473-.659-1.473-1.473-1.473Z"/>
    <path class="cls-1" d="M9.305,14.43c-.065-.113-.173-.141-.216-.147l-.686-.104-.142-.679c-.059-.284-.089-.577-.089-.87s.03-.586.089-.87l.142-.679.686-.104c.043-.007.15-.034.216-.147.063-.109.039-.212.02-.263l-.25-.645.515-.461c.44-.395.947-.688,1.507-.872l.66-.217.434.542c.026.034.104.113.235.113s.209-.079.235-.113l.434-.542.66.217c.174.057.333.144.497.222.81-2.326.294-5.011-1.565-6.869C10.098-.647,5.902-.647,3.314,1.941s-2.588,6.785,0,9.373l4.686,4.686,1.328-1.328c.018-.054.034-.143-.024-.242ZM5.054,6.627c0-1.627,1.319-2.946,2.946-2.946s2.946,1.319,2.946,2.946-1.319,2.946-2.946,2.946-2.946-1.319-2.946-2.946Z"/>
  </g>
</svg>