<?xml version="1.0" encoding="UTF-8"?>
<svg id="Layer_1" data-name="Layer 1" xmlns="http://www.w3.org/2000/svg" viewBox="0 0 16 16">
  <defs>
    <style>
      .cls-1 {
        fill: #fc7f7f;
      }
    </style>
  </defs>
  <path class="cls-1" d="M12.686,11.314l-4.686,4.686-4.686-4.686C.726,8.726.726,4.529,3.314,1.941,5.902-.647,10.098-.647,12.686,1.941c2.588,2.588,2.588,6.784,0,9.373ZM8,9.573c1.627,0,2.946-1.319,2.946-2.946s-1.319-2.946-2.946-2.946-2.946,1.319-2.946,2.946,1.319,2.946,2.946,2.946ZM8,8.1c-.813,0-1.473-.659-1.473-1.473s.659-1.473,1.473-1.473,1.473.659,1.473,1.473-.659,1.473-1.473,1.473Z"/>
</svg>