<?xml version="1.0" encoding="utf-8"?>
<!-- Generator: Adobe Illustrator 28.3.0, SVG Export Plug-In . SVG Version: 6.00 Build 0)  -->
<svg version="1.1" id="Layer_1" xmlns="http://www.w3.org/2000/svg" xmlns:xlink="http://www.w3.org/1999/xlink" x="0px" y="0px"
	 viewBox="0 0 16 16" style="enable-background:new 0 0 16 16;" xml:space="preserve">
<style type="text/css">
	.st0{fill:#FC7F7F;}
</style>
<path class="st0" d="M3.8,7.6c0.5-0.1,1.1-0.1,1.6,0c0.1,0.5,0.3,0.9,0.8,1.2C6.7,9,7.2,9,7.6,8.8C8,9.3,8.3,9.7,8.4,10.3
	c-0.4,0.3-0.6,0.7-0.6,1.3c0,0.5,0.2,1,0.6,1.3c-0.1,0.3-0.2,0.5-0.3,0.8C8,13.8,7.8,14,7.6,14.2c-0.4-0.2-1-0.1-1.4,0.1
	c-0.4,0.3-0.7,0.7-0.8,1.2c-0.5,0.1-1.1,0.1-1.6,0C3.7,15,3.4,14.6,3,14.3c-0.4-0.3-1-0.3-1.4-0.1c-0.4-0.4-0.7-0.9-0.8-1.4
	c0.4-0.3,0.6-0.7,0.6-1.3c0-0.5-0.2-1-0.6-1.3C0.9,10,1,9.8,1.1,9.5C1.3,9.3,1.4,9,1.6,8.8C2.1,9,2.6,9,3,8.7
	C3.4,8.5,3.7,8.1,3.8,7.6z M4.6,12.7c0.7,0,1.2-0.5,1.2-1.2c0-0.7-0.5-1.2-1.2-1.2c-0.7,0-1.2,0.5-1.2,1.2C3.4,12.2,4,12.7,4.6,12.7
	z"/>
<path class="st0" d="M11.2,9V7.2c1.2-1.1,1.3-3,0.2-4.2C10.8,2.4,10,2,9.2,2c-1.6,0-2.9,1.2-3,2.8C4.6,3.8,2.8,4,1.9,5
	C1.5,5.4,1,6.4,1.2,7.4C1.3,7.7,1.3,7.9,1.4,8l0.5,0.2c0.3,0.1,0.5,0.1,0.8-0.1C2.9,8,3.1,7.8,3.1,7.5L3.2,7l0.5-0.1
	c0.6-0.1,1.3-0.1,1.9,0L6.1,7l0.1,0.5c0,0.3,0.2,0.5,0.4,0.7c0.2,0.1,0.5,0.2,0.8,0.1L7.8,8l0.3,0.4c0.4,0.5,0.8,1.1,1,1.7l0.2,0.5
	l-0.4,0.3c-0.2,0.2-0.3,0.4-0.3,0.7c0,0.3,0.1,0.5,0.3,0.7l0.4,0.3L9.1,13c0,0,0,0,0,0h1.1c0.6,0,1-0.4,1-1v-1l3,2V7L11.2,9z"/>
</svg>
